# xmcd
#
# Track frame offsets:
#	150
#	19261
#	38785
#	55436
#	71929
#	89172
#	105406
#	121698
#	134900
#	154011
#	173535
#	190186
#	206679
#	223922
#	240156
#	256448
#	281050
#
# Disc length: 3756 seconds
#
# Revision: 1
# Processed by: cddbd v1.5.2PL0 Copyright (c) Steve Scherf et al.
# Submitted via: audiograbber 1.83.01
#
DISCID=010eaa11
DTITLE=Misc - Misc
DYEAR=1900
DGENRE=
TTITLE0=Help Me Make It Through The Night
TTITLE1=When I get Where I'm Going
TTITLE2=Anything But Mine
TTITLE3=Cheating
TTITLE4=Lucky One "The"
TTITLE5=Good News, Bad News
TTITLE6=Politically Incorrect
TTITLE7=I Don't Feel Like Loving You Today
TTITLE8=Take The Ribbon From Your Hand
TTITLE9=When I Get Where I'm Going
TTITLE10=Keep You Distance
TTITLE11=Cheating
TTITLE12=Lucky One, The
TTITLE13=Good News Bad News
TTITLE14=Politically Incorrect
TTITLE15=I Don't feel Like Loving You
TTITLE16=Data Track
EXTD=
EXTT0=
EXTT1=
EXTT2=
EXTT3=
EXTT4=
EXTT5=
EXTT6=
EXTT7=
EXTT8=
EXTT9=
EXTT10=
EXTT11=
EXTT12=
EXTT13=
EXTT14=
EXTT15=
EXTT16=
PLAYORDER=
